# Blender v2.74 (sub 0) OBJ File: 'tower.blend'
# www.blender.org
mtllib tower_base.mtl
o Circle.005_Circle.007
v -11.511236 -0.672217 -6.652496
v -11.500001 -1.172217 -6.652497
v -0.011240 -0.672217 -13.285542
v -0.011240 -1.172217 -13.285542
v 15.488741 -16.672213 -40.132320
v -42.499985 -16.672213 -6.652492
v 8.879752 -0.669542 -36.353287
v 15.488741 -16.172213 -40.132320
v -0.011240 -1.172217 -13.285542
v -0.011241 -0.672217 -13.285542
v -11.511236 -0.672217 -6.652496
v -11.500001 -1.172217 -6.652497
v -42.499985 -16.172213 -6.652492
v -0.726680 1.182554 -20.240696
v 14.991711 -15.178212 -40.993343
v -17.179993 1.182554 -10.750646
v -42.997013 -15.178214 -7.513512
v 11.516850 -0.672217 -6.642775
v 11.511232 -1.172217 -6.633043
v 11.511236 -0.672217 6.633038
v 11.511236 -1.172217 6.633038
v 27.011234 -16.672213 33.479805
v 27.011221 -16.672213 -33.479816
v 27.042988 -0.669542 25.866734
v 27.011234 -16.172213 33.479805
v 11.511235 -1.172217 6.633036
v 11.511236 -0.672217 6.633037
v 11.516850 -0.672217 -6.642775
v 11.511232 -1.172217 -6.633043
v 27.011221 -16.172213 -33.479816
v 17.892296 1.182554 9.489250
v 28.005413 -15.178212 33.479870
v 17.900330 1.182554 -9.504756
v 28.005400 -15.178214 -33.479744
v -0.005617 -0.672217 13.295271
v -0.011235 -1.172217 13.285542
v -11.500000 -0.672217 6.652503
v -11.500000 -1.172217 6.652503
v -42.499977 -16.672213 6.652504
v 15.488751 -16.672213 40.132320
v -35.922745 -0.669542 10.486540
v -42.499977 -16.172213 6.652504
v -11.499998 -1.172217 6.652501
v -11.499999 -0.672217 6.652503
v -0.005617 -0.672217 13.295271
v -0.011235 -1.172217 13.285542
v 15.488751 -16.172213 40.132320
v -17.164085 1.182554 10.748783
v -42.997128 -15.178212 7.513454
v -0.718808 1.182554 20.252745
v 14.991597 -15.178214 40.993267
vn -0.302800 0.613900 0.729000
vn 0.499800 0.005600 0.866100
vn 0.000000 -0.000000 1.000000
vn 0.866000 0.000000 0.500000
vn -0.500000 0.000000 -0.866000
vn -0.425300 0.525600 -0.736800
vn -0.353500 -0.707200 -0.612300
vn 0.139400 0.960300 0.241700
vn 0.782700 0.614000 0.102400
vn -0.480100 0.613800 -0.626700
vn -1.000000 0.005600 -0.000200
vn -0.866000 -0.000000 -0.500000
vn -0.866000 -0.000000 0.500000
vn 1.000000 0.000000 -0.000000
vn 0.850700 0.525600 0.000100
vn 0.707000 -0.707200 -0.000000
vn -0.279100 0.960300 -0.000100
vn -0.479900 0.614100 0.626600
vn 0.782800 0.613700 -0.102400
vn 0.500200 0.005600 -0.865900
vn 0.866000 -0.000000 -0.500000
vn -0.000000 0.000000 -1.000000
vn -0.500000 0.000000 0.866000
vn -0.425400 0.525700 0.736700
vn -0.353500 -0.707200 0.612300
vn 0.139700 0.960300 -0.241700
vn -0.302700 0.613900 -0.729000
usemtl None
s off
f 13//1 11//1 16//1 17//1
f 2//2 4//2 3//2 1//2
f 13//3 6//3 12//3 11//3
f 5//4 8//4 10//4 9//4
f 8//5 5//5 6//5 13//5
f 14//6 15//6 17//6 16//6
f 8//7 13//7 17//7 15//7
f 11//8 10//8 14//8 16//8
f 10//9 8//9 15//9 14//9
f 30//10 28//10 33//10 34//10
f 19//11 21//11 20//11 18//11
f 30//12 23//12 29//12 28//12
f 22//13 25//13 27//13 26//13
f 25//14 22//14 23//14 30//14
f 31//15 32//15 34//15 33//15
f 25//16 30//16 34//16 32//16
f 28//17 27//17 31//17 33//17
f 27//18 25//18 32//18 31//18
f 47//19 45//19 50//19 51//19
f 36//20 38//20 37//20 35//20
f 47//21 40//21 46//21 45//21
f 39//22 42//22 44//22 43//22
f 42//23 39//23 40//23 47//23
f 48//24 49//24 51//24 50//24
f 42//25 47//25 51//25 49//25
f 45//26 44//26 48//26 50//26
f 44//27 42//27 49//27 48//27
o Circle.003
v 9.842057 0.000000 -5.676772
v -0.009603 0.000000 -11.353545
v -9.837259 0.000000 -5.685086
v 10.565917 -0.178706 -6.094285
v -0.010309 -0.178706 -12.188568
v -10.560764 -0.178706 -6.103209
v 10.565917 -0.672217 -6.094285
v -0.010309 -0.672217 -12.188568
v -10.560764 -0.672217 -6.103209
v 11.516850 -0.672217 -6.642771
v -0.011238 -0.672217 -13.285541
v -11.511235 -0.672217 -6.652499
v 11.511231 -1.172217 -6.633044
v -0.011238 -1.172217 -13.285541
v 12.011231 -1.172217 -7.499069
v 0.488762 -1.172217 -14.151566
v 12.011231 -1.672217 -7.499069
v 0.488762 -1.672217 -14.151566
v 12.511231 -1.672217 -8.365094
v 0.988762 -1.672217 -15.017591
v 12.511231 -2.172217 -8.365094
v 0.988762 -2.172217 -15.017591
v 13.011232 -2.172217 -9.231119
v 1.488760 -2.172217 -15.883615
v 13.011232 -2.672218 -9.231119
v 1.488760 -2.672218 -15.883615
v 13.511231 -2.672218 -10.097144
v 1.988761 -2.672218 -16.749641
v 13.511231 -3.172218 -10.097144
v 1.988761 -3.172218 -16.749641
v 14.011230 -3.172218 -10.963169
v 2.488760 -3.172218 -17.615665
v 14.011230 -3.672218 -10.963169
v 2.488760 -3.672218 -17.615665
v 14.511230 -3.672218 -11.829193
v 2.988759 -3.672218 -18.481689
v 14.511230 -4.172218 -11.829193
v 2.988759 -4.172218 -18.481689
v 15.011230 -4.172218 -12.695219
v 3.488759 -4.172218 -19.347715
v 15.011230 -4.672218 -12.695219
v 3.488759 -4.672218 -19.347715
v 15.511229 -4.672218 -13.561244
v 3.988759 -4.672218 -20.213739
v 15.511229 -5.172218 -13.561244
v 3.988759 -5.172218 -20.213739
v 16.011229 -5.172218 -14.427268
v 4.488759 -5.172218 -21.079765
v 16.011229 -5.672218 -14.427268
v 4.488759 -5.672218 -21.079765
v 16.511227 -5.672218 -15.293293
v 4.988757 -5.672218 -21.945789
v 16.511227 -6.172218 -15.293293
v 4.988757 -6.172218 -21.945789
v 17.011227 -6.172218 -16.159317
v 5.488756 -6.172218 -22.811813
v 17.011227 -6.672218 -16.159317
v 5.488756 -6.672218 -22.811813
v 17.511227 -6.672218 -17.025343
v 5.988757 -6.672218 -23.677837
v 17.511227 -7.172218 -17.025343
v 5.988757 -7.172218 -23.677837
v 18.011229 -7.172218 -17.891369
v 6.488757 -7.172218 -24.543865
v 18.011229 -7.672217 -17.891369
v 6.488757 -7.672217 -24.543865
v 18.511227 -7.672217 -18.757391
v 6.988756 -7.672217 -25.409887
v 18.511227 -8.172217 -18.757391
v 6.988756 -8.172217 -25.409887
v 19.011227 -8.172217 -19.623419
v 7.488755 -8.172217 -26.275913
v 19.011227 -8.672217 -19.623419
v 7.488755 -8.672217 -26.275913
v 19.511225 -8.672217 -20.489443
v 7.988755 -8.672217 -27.141941
v 19.511225 -9.172216 -20.489443
v 7.988755 -9.172216 -27.141941
v 20.011227 -9.172216 -21.355469
v 8.488756 -9.172216 -28.007963
v 20.011227 -9.672216 -21.355469
v 8.488756 -9.672216 -28.007963
v 20.511225 -9.672216 -22.221493
v 8.988754 -9.672216 -28.873989
v 20.511225 -10.172216 -22.221493
v 8.988754 -10.172216 -28.873989
v 21.011223 -10.172216 -23.087515
v 9.488753 -10.172216 -29.740013
v 21.011223 -10.672215 -23.087515
v 9.488753 -10.672215 -29.740013
v 21.511225 -10.672215 -23.953543
v 9.988752 -10.672215 -30.606037
v 21.511225 -11.172215 -23.953543
v 9.988752 -11.172215 -30.606037
v 22.011221 -11.172215 -24.819565
v 10.488752 -11.172215 -31.472063
v 22.011221 -11.672215 -24.819565
v 10.488752 -11.672215 -31.472063
v 22.511223 -11.672215 -25.685593
v 10.988753 -11.672215 -32.338089
v 22.511223 -12.172215 -25.685593
v 10.988753 -12.172215 -32.338089
v 23.011223 -12.172215 -26.551615
v 11.488750 -12.172215 -33.204113
v 23.011223 -12.672215 -26.551615
v 11.488750 -12.672215 -33.204113
v 23.511223 -12.672215 -27.417643
v 11.988751 -12.672215 -34.070137
v 23.511223 -13.172215 -27.417643
v 11.988751 -13.172215 -34.070137
v 24.011223 -13.172215 -28.283665
v 12.488751 -13.172215 -34.936161
v 24.011223 -13.672215 -28.283665
v 12.488751 -13.672215 -34.936161
v 24.511219 -13.672215 -29.149689
v 12.988749 -13.672215 -35.802185
v 24.511219 -14.172215 -29.149689
v 12.988749 -14.172215 -35.802185
v 25.011219 -14.172215 -30.015717
v 13.488750 -14.172215 -36.668213
v 25.011219 -14.672214 -30.015717
v 13.488750 -14.672214 -36.668213
v 25.511219 -14.672214 -30.881739
v 13.988748 -14.672214 -37.534237
v 25.511219 -15.172214 -30.881739
v 13.988748 -15.172214 -37.534237
v 26.011223 -15.172214 -31.747766
v 14.488749 -15.172214 -38.400261
v 26.011223 -15.672214 -31.747766
v 14.488749 -15.672214 -38.400261
v 26.511219 -15.672214 -32.613789
v 14.988748 -15.672214 -39.266289
v 26.511219 -16.172213 -32.613789
v 14.988748 -16.172213 -39.266289
v 27.011219 -16.172213 -33.479816
v 15.488749 -16.172213 -40.132309
v 27.011219 -16.672213 -33.479816
v 15.488749 -16.672213 -40.132309
v 0.000000 0.000000 0.000000
v -0.004800 0.000000 11.361859
v 9.837257 0.000000 5.668460
v -0.005153 -0.178706 12.197495
v 10.560762 -0.178706 6.085361
v -0.005153 -0.672217 12.197495
v 10.560762 -0.672217 6.085361
v -0.005617 -0.672217 13.295271
v 11.511232 -0.672217 6.633043
v -0.011235 -1.172217 13.285542
v 11.511232 -1.172217 6.633043
v 0.488765 -1.172217 14.151567
v 12.011232 -1.172217 7.499068
v 0.488765 -1.672217 14.151567
v 12.011232 -1.672217 7.499068
v 0.988765 -1.672217 15.017592
v 12.511232 -1.672217 8.365093
v 0.988765 -2.172217 15.017592
v 12.511232 -2.172217 8.365093
v 1.488764 -2.172217 15.883617
v 13.011231 -2.172217 9.231118
v 1.488764 -2.672218 15.883617
v 13.011231 -2.672218 9.231118
v 1.988763 -2.672218 16.749641
v 13.511230 -2.672218 10.097143
v 1.988763 -3.172218 16.749641
v 13.511230 -3.172218 10.097143
v 2.488763 -3.172218 17.615667
v 14.011230 -3.172218 10.963168
v 2.488763 -3.672218 17.615667
v 14.011230 -3.672218 10.963168
v 2.988763 -3.672218 18.481693
v 14.511230 -3.672218 11.829193
v 2.988763 -4.172218 18.481693
v 14.511230 -4.172218 11.829193
v 3.488762 -4.172218 19.347717
v 15.011230 -4.172218 12.695218
v 3.488762 -4.672218 19.347717
v 15.011230 -4.672218 12.695218
v 3.988762 -4.672218 20.213743
v 15.511229 -4.672218 13.561242
v 3.988762 -5.172218 20.213743
v 15.511229 -5.172218 13.561242
v 4.488761 -5.172218 21.079767
v 16.011229 -5.172218 14.427268
v 4.488761 -5.672218 21.079767
v 16.011229 -5.672218 14.427268
v 4.988760 -5.672218 21.945791
v 16.511227 -5.672218 15.293292
v 4.988760 -6.172218 21.945791
v 16.511227 -6.172218 15.293292
v 5.488760 -6.172218 22.811817
v 17.011227 -6.172218 16.159317
v 5.488760 -6.672218 22.811817
v 17.011227 -6.672218 16.159317
v 5.988759 -6.672218 23.677841
v 17.511227 -6.672218 17.025341
v 5.988759 -7.172218 23.677841
v 17.511227 -7.172218 17.025341
v 6.488759 -7.172218 24.543867
v 18.011227 -7.172218 17.891367
v 6.488759 -7.672217 24.543867
v 18.011227 -7.672217 17.891367
v 6.988758 -7.672217 25.409891
v 18.511227 -7.672217 18.757391
v 6.988758 -8.172217 25.409891
v 18.511227 -8.172217 18.757391
v 7.488758 -8.172217 26.275917
v 19.011225 -8.172217 19.623417
v 7.488758 -8.672217 26.275917
v 19.011225 -8.672217 19.623417
v 7.988757 -8.672217 27.141941
v 19.511225 -8.672217 20.489441
v 7.988757 -9.172216 27.141941
v 19.511225 -9.172216 20.489441
v 8.488757 -9.172216 28.007967
v 20.011223 -9.172216 21.355467
v 8.488757 -9.672216 28.007967
v 20.011223 -9.672216 21.355467
v 8.988756 -9.672216 28.873991
v 20.511223 -9.672216 22.221491
v 8.988756 -10.172216 28.873991
v 20.511223 -10.172216 22.221491
v 9.488756 -10.172216 29.740017
v 21.011223 -10.172216 23.087515
v 9.488756 -10.672215 29.740017
v 21.011223 -10.672215 23.087515
v 9.988755 -10.672215 30.606041
v 21.511223 -10.672215 23.953541
v 9.988755 -11.172215 30.606041
v 21.511223 -11.172215 23.953541
v 10.488755 -11.172215 31.472067
v 22.011223 -11.172215 24.819565
v 10.488755 -11.672215 31.472067
v 22.011223 -11.672215 24.819565
v 10.988755 -11.672215 32.338089
v 22.511223 -11.672215 25.685591
v 10.988755 -12.172215 32.338089
v 22.511223 -12.172215 25.685591
v 11.488753 -12.172215 33.204117
v 23.011223 -12.172215 26.551615
v 11.488753 -12.672215 33.204117
v 23.011223 -12.672215 26.551615
v 11.988753 -12.672215 34.070141
v 23.511219 -12.672215 27.417641
v 11.988753 -13.172215 34.070141
v 23.511219 -13.172215 27.417641
v 12.488753 -13.172215 34.936165
v 24.011219 -13.172215 28.283665
v 12.488753 -13.672215 34.936165
v 24.011219 -13.672215 28.283665
v 12.988751 -13.672215 35.802193
v 24.511219 -13.672215 29.149691
v 12.988751 -14.172215 35.802193
v 24.511219 -14.172215 29.149691
v 13.488751 -14.172215 36.668217
v 25.011219 -14.172215 30.015715
v 13.488751 -14.672214 36.668217
v 25.011219 -14.672214 30.015715
v 13.988751 -14.672214 37.534241
v 25.511219 -14.672214 30.881739
v 13.988751 -15.172214 37.534241
v 25.511219 -15.172214 30.881739
v 14.488751 -15.172214 38.400265
v 26.011219 -15.172214 31.747766
v 14.488751 -15.672214 38.400265
v 26.011219 -15.672214 31.747766
v 14.988750 -15.672214 39.266289
v 26.511219 -15.672214 32.613792
v 14.988750 -16.172213 39.266289
v 26.511219 -16.172213 32.613792
v 15.488750 -16.172213 40.132317
v 27.011215 -16.172213 33.479816
v 15.488750 -16.672213 40.132317
v 27.011215 -16.672213 33.479816
v -9.827659 0.000000 5.685087
v -10.550457 -0.178706 6.103211
v -10.550457 -0.672217 6.103211
v -11.499998 -0.672217 6.652501
v -11.500001 -1.172217 -6.652499
v -11.499998 -1.172217 6.652501
v -12.500002 -1.172217 -6.652500
v -12.499998 -1.172217 6.652501
v -12.500002 -1.672217 -6.652500
v -12.499998 -1.672217 6.652501
v -13.500000 -1.672217 -6.652499
v -13.499998 -1.672217 6.652501
v -13.500000 -2.172217 -6.652499
v -13.499998 -2.172217 6.652501
v -14.500000 -2.172217 -6.652500
v -14.499995 -2.172217 6.652500
v -14.500000 -2.672218 -6.652500
v -14.499995 -2.672218 6.652500
v -15.499999 -2.672218 -6.652499
v -15.499995 -2.672218 6.652501
v -15.499999 -3.172218 -6.652499
v -15.499995 -3.172218 6.652501
v -16.499998 -3.172218 -6.652499
v -16.499994 -3.172218 6.652500
v -16.499998 -3.672218 -6.652499
v -16.499994 -3.672218 6.652500
v -17.499998 -3.672218 -6.652499
v -17.499994 -3.672218 6.652500
v -17.499998 -4.172218 -6.652499
v -17.499994 -4.172218 6.652500
v -18.499998 -4.172218 -6.652499
v -18.499994 -4.172218 6.652500
v -18.499998 -4.672218 -6.652499
v -18.499994 -4.672218 6.652500
v -19.499998 -4.672218 -6.652500
v -19.499992 -4.672218 6.652500
v -19.499998 -5.172218 -6.652500
v -19.499992 -5.172218 6.652500
v -20.499996 -5.172218 -6.652498
v -20.499992 -5.172218 6.652500
v -20.499996 -5.672218 -6.652498
v -20.499992 -5.672218 6.652500
v -21.499996 -5.672218 -6.652500
v -21.499992 -5.672218 6.652501
v -21.499996 -6.172218 -6.652500
v -21.499992 -6.172218 6.652501
v -22.499996 -6.172218 -6.652498
v -22.499992 -6.172218 6.652501
v -22.499996 -6.672218 -6.652498
v -22.499992 -6.672218 6.652501
v -23.499996 -6.672218 -6.652500
v -23.499990 -6.672218 6.652501
v -23.499996 -7.172218 -6.652500
v -23.499990 -7.172218 6.652501
v -24.499994 -7.172218 -6.652498
v -24.499990 -7.172218 6.652501
v -24.499994 -7.672217 -6.652498
v -24.499990 -7.672217 6.652501
v -25.499992 -7.672217 -6.652499
v -25.499990 -7.672217 6.652501
v -25.499992 -8.172217 -6.652499
v -25.499990 -8.172217 6.652501
v -26.499992 -8.172217 -6.652499
v -26.499990 -8.172217 6.652500
v -26.499992 -8.672217 -6.652499
v -26.499990 -8.672217 6.652500
v -27.499992 -8.672217 -6.652500
v -27.499990 -8.672217 6.652501
v -27.499992 -9.172216 -6.652500
v -27.499990 -9.172216 6.652501
v -28.499992 -9.172216 -6.652498
v -28.499989 -9.172216 6.652501
v -28.499992 -9.672216 -6.652498
v -28.499989 -9.672216 6.652501
v -29.499992 -9.672216 -6.652498
v -29.499989 -9.672216 6.652501
v -29.499992 -10.172216 -6.652498
v -29.499989 -10.172216 6.652501
v -30.499992 -10.172216 -6.652499
v -30.499987 -10.172216 6.652501
v -30.499992 -10.672215 -6.652499
v -30.499987 -10.672215 6.652501
v -31.499990 -10.672215 -6.652499
v -31.499987 -10.672215 6.652501
v -31.499990 -11.172215 -6.652499
v -31.499987 -11.172215 6.652501
v -32.499989 -11.172215 -6.652498
v -32.499985 -11.172215 6.652500
v -32.499989 -11.672215 -6.652498
v -32.499985 -11.672215 6.652500
v -33.499989 -11.672215 -6.652498
v -33.499985 -11.672215 6.652501
v -33.499989 -12.172215 -6.652498
v -33.499985 -12.172215 6.652501
v -34.499989 -12.172215 -6.652500
v -34.499985 -12.172215 6.652500
v -34.499989 -12.672215 -6.652500
v -34.499985 -12.672215 6.652500
v -35.499989 -12.672215 -6.652499
v -35.499985 -12.672215 6.652500
v -35.499989 -13.172215 -6.652499
v -35.499985 -13.172215 6.652500
v -36.499985 -13.172215 -6.652500
v -36.499985 -13.172215 6.652499
v -36.499985 -13.672215 -6.652500
v -36.499985 -13.672215 6.652499
v -37.499985 -13.672215 -6.652500
v -37.499985 -13.672215 6.652501
v -37.499985 -14.172215 -6.652500
v -37.499985 -14.172215 6.652501
v -38.499985 -14.172215 -6.652502
v -38.499981 -14.172215 6.652500
v -38.499985 -14.672214 -6.652502
v -38.499981 -14.672214 6.652500
v -39.499985 -14.672214 -6.652499
v -39.499985 -14.672214 6.652500
v -39.499985 -15.172214 -6.652499
v -39.499985 -15.172214 6.652500
v -40.499981 -15.172214 -6.652499
v -40.499981 -15.172214 6.652501
v -40.499981 -15.672214 -6.652499
v -40.499981 -15.672214 6.652501
v -41.499985 -15.672214 -6.652500
v -41.499977 -15.672214 6.652500
v -41.499985 -16.172213 -6.652500
v -41.499977 -16.172213 6.652500
v -42.499981 -16.172213 -6.652500
v -42.499977 -16.172213 6.652500
v -42.499981 -16.672213 -6.652500
v -42.499977 -16.672213 6.652500
v -35.922745 -0.669542 10.486537
vn -0.119800 0.970800 -0.207700
vn 0.119800 0.970800 -0.207900
vn -0.499600 0.000000 -0.866200
vn 0.499300 0.000000 -0.866400
vn 0.000000 1.000000 -0.000000
vn 0.499600 -0.011200 -0.866200
vn 0.500000 0.000000 -0.866000
vn 0.239700 0.970800 0.000100
vn 0.120100 0.970800 0.207700
vn 1.000000 0.000000 0.000400
vn 0.500700 0.000000 0.865600
vn 0.500300 -0.011200 0.865800
vn 0.500000 0.000000 0.866000
vn -0.120000 0.970800 0.207600
vn -0.239900 0.970800 0.000200
vn -1.000000 0.000000 0.000800
vn -1.000000 0.000000 0.000000
vn -0.500400 0.000000 0.865800
vn -0.999900 -0.011200 0.000400
usemtl None
s off
f 53//28 56//28 57//28 54//28
f 52//29 55//29 56//29 53//29
f 56//30 59//30 60//30 57//30
f 55//31 58//31 59//31 56//31
f 59//32 62//32 63//32 60//32
f 58//32 61//32 62//32 59//32
f 61//33 64//33 65//33 62//33
f 64//32 66//32 67//32 65//32
f 66//34 68//34 69//34 67//34
f 68//32 70//32 71//32 69//32
f 70//34 72//34 73//34 71//34
f 72//32 74//32 75//32 73//32
f 74//34 76//34 77//34 75//34
f 76//32 78//32 79//32 77//32
f 78//34 80//34 81//34 79//34
f 80//32 82//32 83//32 81//32
f 82//34 84//34 85//34 83//34
f 84//32 86//32 87//32 85//32
f 86//34 88//34 89//34 87//34
f 88//32 90//32 91//32 89//32
f 90//34 92//34 93//34 91//34
f 92//32 94//32 95//32 93//32
f 94//34 96//34 97//34 95//34
f 96//32 98//32 99//32 97//32
f 98//34 100//34 101//34 99//34
f 100//32 102//32 103//32 101//32
f 102//34 104//34 105//34 103//34
f 104//32 106//32 107//32 105//32
f 106//34 108//34 109//34 107//34
f 108//32 110//32 111//32 109//32
f 110//34 112//34 113//34 111//34
f 112//32 114//32 115//32 113//32
f 114//34 116//34 117//34 115//34
f 116//32 118//32 119//32 117//32
f 118//34 120//34 121//34 119//34
f 120//32 122//32 123//32 121//32
f 122//34 124//34 125//34 123//34
f 124//32 126//32 127//32 125//32
f 126//34 128//34 129//34 127//34
f 128//32 130//32 131//32 129//32
f 130//34 132//34 133//34 131//34
f 132//32 134//32 135//32 133//32
f 134//34 136//34 137//34 135//34
f 136//32 138//32 139//32 137//32
f 138//34 140//34 141//34 139//34
f 140//32 142//32 143//32 141//32
f 142//34 144//34 145//34 143//34
f 144//32 146//32 147//32 145//32
f 146//34 148//34 149//34 147//34
f 148//32 150//32 151//32 149//32
f 150//34 152//34 153//34 151//34
f 152//32 154//32 155//32 153//32
f 154//34 156//34 157//34 155//34
f 156//32 158//32 159//32 157//32
f 158//34 160//34 161//34 159//34
f 160//32 162//32 163//32 161//32
f 162//34 164//34 165//34 163//34
f 164//32 166//32 167//32 165//32
f 166//34 168//34 169//34 167//34
f 168//32 170//32 171//32 169//32
f 170//34 172//34 173//34 171//34
f 172//32 174//32 175//32 173//32
f 174//34 176//34 177//34 175//34
f 176//32 178//32 179//32 177//32
f 178//34 180//34 181//34 179//34
f 180//32 182//32 183//32 181//32
f 182//34 184//34 185//34 183//34
f 184//32 186//32 187//32 185//32
f 186//34 188//34 189//34 187//34
f 53//32 54//32 190//32
f 53//32 190//32 52//32
f 192//35 194//35 55//35 52//35
f 191//36 193//36 194//36 192//36
f 194//37 196//37 58//37 55//37
f 193//38 195//38 196//38 194//38
f 195//32 197//32 198//32 196//32
f 197//39 199//39 200//39 198//39
f 199//32 201//32 202//32 200//32
f 201//40 203//40 204//40 202//40
f 203//32 205//32 206//32 204//32
f 205//40 207//40 208//40 206//40
f 207//32 209//32 210//32 208//32
f 209//40 211//40 212//40 210//40
f 211//32 213//32 214//32 212//32
f 213//40 215//40 216//40 214//40
f 215//32 217//32 218//32 216//32
f 217//40 219//40 220//40 218//40
f 219//32 221//32 222//32 220//32
f 221//40 223//40 224//40 222//40
f 223//32 225//32 226//32 224//32
f 225//40 227//40 228//40 226//40
f 227//32 229//32 230//32 228//32
f 229//40 231//40 232//40 230//40
f 231//32 233//32 234//32 232//32
f 233//40 235//40 236//40 234//40
f 235//32 237//32 238//32 236//32
f 237//40 239//40 240//40 238//40
f 239//32 241//32 242//32 240//32
f 241//40 243//40 244//40 242//40
f 243//32 245//32 246//32 244//32
f 245//40 247//40 248//40 246//40
f 247//32 249//32 250//32 248//32
f 249//40 251//40 252//40 250//40
f 251//32 253//32 254//32 252//32
f 253//40 255//40 256//40 254//40
f 255//32 257//32 258//32 256//32
f 257//40 259//40 260//40 258//40
f 259//32 261//32 262//32 260//32
f 261//40 263//40 264//40 262//40
f 263//32 265//32 266//32 264//32
f 265//40 267//40 268//40 266//40
f 267//32 269//32 270//32 268//32
f 269//40 271//40 272//40 270//40
f 271//32 273//32 274//32 272//32
f 273//40 275//40 276//40 274//40
f 275//32 277//32 278//32 276//32
f 277//40 279//40 280//40 278//40
f 279//32 281//32 282//32 280//32
f 281//40 283//40 284//40 282//40
f 283//32 285//32 286//32 284//32
f 285//40 287//40 288//40 286//40
f 287//32 289//32 290//32 288//32
f 289//40 291//40 292//40 290//40
f 291//32 293//32 294//32 292//32
f 293//40 295//40 296//40 294//40
f 295//32 297//32 298//32 296//32
f 297//40 299//40 300//40 298//40
f 299//32 301//32 302//32 300//32
f 301//40 303//40 304//40 302//40
f 303//32 305//32 306//32 304//32
f 305//40 307//40 308//40 306//40
f 307//32 309//32 310//32 308//32
f 309//40 311//40 312//40 310//40
f 311//32 313//32 314//32 312//32
f 313//40 315//40 316//40 314//40
f 315//32 317//32 318//32 316//32
f 317//40 319//40 320//40 318//40
f 319//32 321//32 322//32 320//32
f 321//40 323//40 324//40 322//40
f 325//41 326//41 193//41 191//41
f 54//42 57//42 326//42 325//42
f 57//43 60//43 327//43 326//43
f 192//32 190//32 191//32
f 60//32 63//32 328//32 327//32
f 329//32 331//32 332//32 330//32
f 331//44 333//44 334//44 332//44
f 333//32 335//32 336//32 334//32
f 335//44 337//44 338//44 336//44
f 337//32 339//32 340//32 338//32
f 339//44 341//44 342//44 340//44
f 341//32 343//32 344//32 342//32
f 343//44 345//44 346//44 344//44
f 345//32 347//32 348//32 346//32
f 347//44 349//44 350//44 348//44
f 349//32 351//32 352//32 350//32
f 355//44 357//44 358//44 356//44
f 357//32 359//32 360//32 358//32
f 359//44 361//44 362//44 360//44
f 361//32 363//32 364//32 362//32
f 363//44 365//44 366//44 364//44
f 365//32 367//32 368//32 366//32
f 367//44 369//44 370//44 368//44
f 369//32 371//32 372//32 370//32
f 371//44 373//44 374//44 372//44
f 373//32 375//32 376//32 374//32
f 375//44 377//44 378//44 376//44
f 377//32 379//32 380//32 378//32
f 379//44 381//44 382//44 380//44
f 381//32 383//32 384//32 382//32
f 383//44 385//44 386//44 384//44
f 385//32 387//32 388//32 386//32
f 387//44 389//44 390//44 388//44
f 389//32 391//32 392//32 390//32
f 391//44 393//44 394//44 392//44
f 393//32 395//32 396//32 394//32
f 395//44 397//44 398//44 396//44
f 397//32 399//32 400//32 398//32
f 399//44 401//44 402//44 400//44
f 401//32 403//32 404//32 402//32
f 403//44 405//44 406//44 404//44
f 405//32 407//32 408//32 406//32
f 407//44 409//44 410//44 408//44
f 409//32 411//32 412//32 410//32
f 411//44 413//44 414//44 412//44
f 413//32 415//32 416//32 414//32
f 415//44 417//44 418//44 416//44
f 417//32 419//32 420//32 418//32
f 419//44 421//44 422//44 420//44
f 421//32 423//32 424//32 422//32
f 423//44 425//44 426//44 424//44
f 425//32 427//32 428//32 426//32
f 427//44 429//44 430//44 428//44
f 429//32 431//32 432//32 430//32
f 431//44 433//44 434//44 432//44
f 433//32 435//32 436//32 434//32
f 435//44 437//44 438//44 436//44
f 437//32 439//32 440//32 438//32
f 439//44 441//44 442//44 440//44
f 441//32 443//32 444//32 442//32
f 443//44 445//44 446//44 444//44
f 445//32 447//32 448//32 446//32
f 447//44 449//44 450//44 448//44
f 449//32 451//32 452//32 450//32
f 451//44 453//44 454//44 452//44
f 327//32 328//32 197//32 195//32
f 192//32 52//32 190//32
f 196//32 198//32 61//32 58//32
f 326//45 327//45 195//45 193//45
f 63//46 329//46 330//46 328//46
f 325//32 191//32 190//32
f 325//32 190//32 54//32
f 356//32 354//32 353//32 355//32
f 352//44 351//44 353//44 354//44
